# xmcd
# 
# Track frame offsets:
#     187
#     27285
#     47947
#     79397
#     99307
#     118910
#     142952
# 
# Disc length: 2226
# 
# Revision: 1
# Processed by: cddbd v1.5.2PL0 Copyright (c) Steve Scherf et al.
# Submitted via: BonkEnc v1.0.6
# 
DISCID=5b08b007
DTITLE=Eric Gale - Blue Horizon
DYEAR=1981
DGENRE=Fusion
TTITLE0=Blue Horizon
TTITLE1=Wait Until the City Sleeps
TTITLE2=When Tokyo
TTITLE3=Mako D'Amour
TTITLE4=Clock-A-Pa
TTITLE5=Call Me at the Same Number
TTITLE6=97th and Columbus
EXTD=
EXTT0=
EXTT1=
EXTT2=
EXTT3=
EXTT4=
EXTT5=
EXTT6=
PLAYORDER=
